<svg width="32" height="23" viewBox="0 0 32 23" fill="none" xmlns="http://www.w3.org/2000/svg">
<path d="M5.91047 18.4154L4.04688 22.1203H0L10.8183 0L18.2502 14.7658H14.1473L10.9445 8.26696L7.71937 14.7658L5.91047 18.4154Z" fill="#1B75BC"/>
<path d="M21.8972 22.1202H17.8153L16.0078 18.4365H20.0575L21.8972 22.1202Z" fill="#6DC065"/>
<path d="M27.0829 14.1849L31.57 22.1189H27.3899L21.042 11.034L24.298 11.0609C25.265 11.0494 26.1889 10.6547 26.8708 9.96176C27.5527 9.26883 27.938 8.33309 27.9438 7.35597C27.9507 6.87353 27.8569 6.39505 27.6684 5.95173C27.4799 5.5084 27.2011 5.1102 26.8501 4.78308C26.5212 4.43733 26.1257 4.1633 25.688 3.97787C25.2503 3.79244 24.7796 3.69954 24.305 3.7049H17.4424L15.6602 0H24.2994C26.2282 0.00336771 28.0771 0.778719 29.4413 2.15632C30.8056 3.53391 31.574 5.40152 31.5785 7.3503C31.6023 8.84445 31.1511 10.3069 30.2912 11.5227C29.5098 12.7148 28.3921 13.6423 27.0829 14.1849Z" fill="#1B75BC"/>
</svg>
